<svg width="335" height="453" viewBox="0 0 335 453" fill="none" xmlns="http://www.w3.org/2000/svg">
<path d="M262.319 29.4215C233.159 9.39727 198.407 -0.881251 163.046 0.05924C127.685 0.999758 93.5294 13.1108 65.4749 34.6569C37.4206 56.2029 16.9078 86.0776 6.87628 119.999C-3.15521 153.92 -2.19028 190.147 9.63312 223.486C18.643 248.892 33.6059 271.626 53.1214 289.868C55.6002 292.185 58.4182 293.752 61.3753 294.633C64.6008 296.151 68.2026 297.001 72.0032 297.001H134.003C147.81 297.001 159.003 285.808 159.003 272.001C159.003 258.194 147.81 247.001 134.003 247.001H81.3206C70.6302 235.412 62.3234 221.719 56.9935 206.69C48.7172 183.353 48.0409 157.994 55.0628 134.25C62.0848 110.505 76.4442 89.5917 96.0823 74.5094C115.72 59.4273 139.629 50.95 164.382 50.2917C189.135 49.6333 213.46 56.8284 233.872 70.8454C254.284 84.8623 269.735 104.981 278.009 128.319C286.283 151.657 286.957 177.016 279.933 200.76C275.3 216.421 267.476 230.849 257.051 243.184C248.095 253.782 245.759 269.419 254.21 280.424C262.661 291.43 278.602 293.616 288.221 283.615C306.739 264.362 320.473 240.864 328.119 215.015C338.154 181.095 337.192 144.868 325.371 111.528C313.551 78.188 291.479 49.4458 262.319 29.4215Z" fill="#F3B340"/>
<rect x="75" y="329.001" width="185" height="50" rx="25" fill="#F3B340"/>
<rect x="117.5" y="403.001" width="100" height="50" rx="25" fill="#F3B340"/>
<rect width="50" height="50" rx="25" transform="matrix(-1 0 0 1 230 247)" fill="#364C63"/>
</svg>
