<svg width="376" height="507" viewBox="0 0 376 507" fill="none" xmlns="http://www.w3.org/2000/svg">
<path d="M213.024 320.863C215.463 334.523 206.338 347.775 192.467 348.145C161.415 348.974 130.562 341.15 103.461 325.305C69.0876 305.209 42.9972 273.525 29.8681 235.935C16.7391 198.345 17.4303 157.307 31.8176 120.181C46.2049 83.0539 73.3475 52.2666 108.378 33.3393C143.409 14.412 184.036 8.58276 222.975 16.8968C261.915 25.2108 296.619 47.1243 320.865 78.7078C345.111 110.291 357.313 149.479 355.283 189.244C353.682 220.596 343.317 250.691 325.605 276.21C317.693 287.609 301.608 287.978 291.519 278.452V278.452C281.43 268.925 281.257 253.117 288.42 241.232C298.319 224.808 304.107 206.089 305.098 186.682C306.519 158.847 297.978 131.415 281.005 109.307C264.033 87.1984 239.74 71.8589 212.483 66.0391C185.226 60.2193 156.786 64.2998 132.265 77.5489C107.743 90.798 88.7436 112.349 78.6725 138.338C68.6013 164.326 68.1175 193.053 77.3078 219.366C86.4982 245.679 104.761 267.858 128.823 281.925C145.598 291.733 164.427 297.15 183.591 297.872C197.457 298.394 210.585 307.203 213.024 320.863V320.863Z" fill="#FBDE37"/>
<rect width="50" height="50" rx="25" transform="matrix(-1 0 0 1 286 290)" fill="#283673"/>
<rect x="163.001" y="382.818" width="50" height="124" rx="25" fill="#FBDE37"/>
<rect x="89.0005" y="364.409" width="50" height="124" rx="25" fill="#FBDE37"/>
<rect x="237" y="364.409" width="50" height="124" rx="25" fill="#FBDE37"/>
</svg>
