<svg xmlns="http://www.w3.org/2000/svg" fill="none" viewBox="0 0 1078.42 461.3">
<path d="M162.064 258.984C164.117 270.483 156.437 281.639 144.76 281.95C118.62 282.647 92.6489 276.061 69.8354 262.723C40.9002 245.807 18.9375 219.136 7.88561 187.493C-3.16628 155.85 -2.58449 121.304 9.52664 90.0514C21.6378 58.7985 44.4861 32.882 73.9746 16.9492C103.463 1.01642 137.663 -3.89061 170.442 3.10805C203.22 10.1067 232.434 28.5533 252.844 55.14C273.254 81.7268 283.525 114.715 281.817 148.189C280.469 174.581 271.744 199.914 256.835 221.396C250.174 230.992 236.634 231.302 228.141 223.283V223.283C219.648 215.263 219.502 201.956 225.532 191.952C233.865 178.126 238.738 162.369 239.572 146.032C240.768 122.6 233.578 99.5088 219.291 80.898C205.004 62.2873 184.554 49.3747 161.609 44.4756C138.664 39.5766 114.724 43.0115 94.0822 54.1645C73.4403 65.3174 57.4464 83.459 48.9687 105.336C40.4909 127.213 40.0836 151.395 47.8199 173.545C55.5563 195.695 70.9301 214.365 91.1848 226.206C105.306 234.462 121.156 239.023 137.288 239.63C148.961 240.07 160.011 247.485 162.064 258.984V258.984Z" fill="#FBDE37"/>
<path d="M291.476 418.636C281.411 418.636 272.464 416.16 264.635 411.207C256.966 406.254 250.894 399.144 246.421 389.877C242.107 380.611 239.95 369.666 239.95 357.044C239.95 344.103 242.107 333.079 246.421 323.972C250.894 314.865 256.966 307.835 264.635 302.882C272.464 297.929 281.411 295.452 291.476 295.452C300.264 295.452 308.173 297.529 315.202 301.683C322.232 305.838 326.946 311.19 329.342 317.74H326.706V266.454C326.706 259.424 328.543 254.072 332.218 250.397C335.893 246.722 341.165 244.885 348.036 244.885C354.746 244.885 359.938 246.722 363.613 250.397C367.448 254.072 369.365 259.424 369.365 266.454V396.588C369.365 403.618 367.528 408.97 363.853 412.645C360.338 416.32 355.145 418.157 348.275 418.157C341.565 418.157 336.372 416.32 332.697 412.645C329.023 408.97 327.185 403.618 327.185 396.588V382.927L329.822 394.67C327.585 401.86 322.871 407.692 315.682 412.165C308.652 416.479 300.583 418.636 291.476 418.636ZM305.137 387.241C309.451 387.241 313.285 386.203 316.64 384.126C319.996 381.889 322.552 378.613 324.309 374.3C326.227 369.826 327.185 364.074 327.185 357.044C327.185 346.34 325.108 338.671 320.954 334.037C316.8 329.244 311.528 326.847 305.137 326.847C300.823 326.847 296.989 327.886 293.633 329.963C290.278 332.04 287.642 335.315 285.725 339.789C283.807 344.103 282.849 349.855 282.849 357.044C282.849 367.589 284.926 375.258 289.08 380.051C293.234 384.845 298.586 387.241 305.137 387.241ZM458.306 418.636C443.927 418.636 431.464 416.16 420.919 411.207C410.534 406.094 402.546 398.904 396.954 389.638C391.362 380.371 388.566 369.427 388.566 356.805C388.566 344.662 391.202 334.037 396.474 324.93C401.907 315.663 409.256 308.474 418.523 303.361C427.949 298.089 438.654 295.452 450.637 295.452C459.424 295.452 467.413 296.89 474.603 299.766C481.792 302.482 487.944 306.556 493.056 311.989C498.169 317.261 502.003 323.652 504.56 331.161C507.276 338.671 508.634 347.059 508.634 356.325C508.634 359.521 507.755 361.917 505.998 363.515C504.24 364.953 501.444 365.672 497.61 365.672H424.275V345.541H477.479L473.644 348.656C473.644 342.745 472.845 337.952 471.247 334.277C469.65 330.602 467.253 327.806 464.058 325.889C461.022 323.972 457.188 323.013 452.554 323.013C447.601 323.013 443.287 324.211 439.613 326.608C436.098 328.845 433.382 332.2 431.464 336.673C429.547 341.147 428.588 346.739 428.588 353.449V355.606C428.588 366.95 431.065 375.098 436.018 380.051C441.131 384.845 448.959 387.241 459.504 387.241C463.019 387.241 467.014 386.842 471.487 386.043C476.12 385.084 480.514 383.806 484.668 382.208C488.822 380.611 492.417 380.371 495.453 381.489C498.488 382.448 500.805 384.205 502.403 386.762C504.16 389.158 505.119 391.954 505.279 395.15C505.439 398.185 504.72 401.221 503.122 404.257C501.524 407.133 498.888 409.369 495.213 410.967C489.621 413.524 483.63 415.441 477.239 416.719C471.008 417.997 464.697 418.636 458.306 418.636ZM567.994 418.636C558.887 418.636 550.819 416.959 543.789 413.603C536.919 410.248 531.486 405.695 527.492 399.943C523.658 394.031 521.74 387.321 521.74 379.812C521.74 371.184 523.977 364.394 528.451 359.441C532.924 354.488 540.114 350.973 550.02 348.896C559.926 346.659 573.107 345.541 589.563 345.541H602.744V365.672H589.563C583.332 365.672 578.14 366.151 573.986 367.11C569.991 367.909 567.035 369.267 565.118 371.184C563.201 372.942 562.242 375.258 562.242 378.134C562.242 381.809 563.521 384.845 566.077 387.241C568.793 389.638 572.627 390.836 577.58 390.836C581.575 390.836 585.09 389.957 588.125 388.2C591.321 386.442 593.877 384.046 595.794 381.01C597.712 377.815 598.67 374.14 598.67 369.986V342.186C598.67 336.434 597.152 332.36 594.117 329.963C591.241 327.566 586.208 326.368 579.018 326.368C575.184 326.368 570.87 326.847 566.077 327.806C561.284 328.605 555.931 330.123 550.02 332.36C545.706 333.957 542.031 334.197 538.996 333.079C535.96 331.96 533.563 330.043 531.806 327.327C530.208 324.611 529.409 321.655 529.409 318.459C529.569 315.264 530.608 312.228 532.525 309.352C534.602 306.477 537.717 304.24 541.871 302.642C549.541 299.766 556.57 297.849 562.961 296.89C569.512 295.932 575.503 295.452 580.936 295.452C594.037 295.452 604.821 297.37 613.289 301.204C621.917 304.879 628.308 310.631 632.462 318.459C636.776 326.129 638.933 336.034 638.933 348.177V396.588C638.933 403.618 637.255 408.97 633.9 412.645C630.545 416.32 625.672 418.157 619.281 418.157C612.73 418.157 607.697 416.32 604.182 412.645C600.827 408.97 599.15 403.618 599.15 396.588V390.357L600.588 393.712C599.789 398.825 597.951 403.218 595.075 406.893C592.2 410.568 588.445 413.444 583.811 415.521C579.178 417.598 573.906 418.636 567.994 418.636ZM708.04 418.636C692.702 418.636 681.358 414.562 674.009 406.414C666.819 398.106 663.224 385.643 663.224 369.027V266.454C663.224 259.424 665.062 254.072 668.736 250.397C672.411 246.722 677.604 244.885 684.314 244.885C691.184 244.885 696.457 246.722 700.131 250.397C703.966 254.072 705.883 259.424 705.883 266.454V367.589C705.883 373.501 707.002 377.815 709.238 380.531C711.635 383.247 714.671 384.605 718.345 384.605C719.464 384.605 720.582 384.525 721.701 384.365C722.979 384.046 724.337 383.806 725.775 383.646C728.491 383.646 730.488 384.685 731.766 386.762C733.204 388.839 733.923 393.073 733.923 399.464C733.923 405.056 732.805 409.29 730.568 412.165C728.331 414.882 724.896 416.639 720.263 417.438C718.984 417.598 717.147 417.837 714.75 418.157C712.354 418.476 710.117 418.636 708.04 418.636ZM777.537 461.295C772.584 461.295 768.59 460.017 765.554 457.461C762.518 454.904 760.601 451.549 759.802 447.395C759.163 443.241 759.882 438.847 761.959 434.214L778.016 399.464V416.719L737.035 323.013C734.958 318.22 734.239 313.746 734.878 309.592C735.677 305.438 737.834 302.163 741.349 299.766C744.864 297.21 749.657 295.932 755.728 295.932C760.841 295.932 764.915 297.13 767.951 299.527C771.146 301.763 774.022 306.237 776.578 312.947L800.544 375.258H792.396L817.799 312.708C820.356 306.157 823.232 301.763 826.427 299.527C829.782 297.13 834.256 295.932 839.848 295.932C844.641 295.932 848.476 297.21 851.351 299.766C854.227 302.163 855.985 305.438 856.624 309.592C857.263 313.746 856.544 318.22 854.467 323.013L800.065 445.238C797.189 451.629 793.993 455.863 790.478 457.94C787.123 460.177 782.809 461.295 777.537 461.295ZM917.557 418.636C910.527 418.636 903.337 418.077 895.988 416.959C888.798 416 882.247 414.163 876.336 411.447C872.341 409.849 869.465 407.692 867.708 404.976C866.11 402.26 865.311 399.384 865.311 396.348C865.471 393.312 866.35 390.596 867.948 388.2C869.705 385.643 871.942 383.886 874.658 382.927C877.534 381.809 880.729 381.889 884.244 383.167C890.955 385.564 896.946 387.321 902.219 388.439C907.651 389.398 912.843 389.877 917.796 389.877C923.708 389.877 927.942 389.078 930.498 387.481C933.055 385.723 934.333 383.486 934.333 380.77C934.333 378.374 933.454 376.536 931.696 375.258C930.099 373.98 927.782 373.101 924.746 372.622L898.144 368.308C888.239 366.551 880.57 362.956 875.137 357.524C869.705 351.932 866.989 344.662 866.989 335.715C866.989 327.407 869.306 320.297 873.939 314.385C878.732 308.314 885.203 303.681 893.351 300.485C901.659 297.13 911.166 295.452 921.871 295.452C929.06 295.452 935.611 296.012 941.522 297.13C947.434 298.089 953.186 299.926 958.778 302.642C962.293 304.08 964.769 306.157 966.207 308.873C967.645 311.589 968.204 314.465 967.885 317.501C967.565 320.377 966.527 323.093 964.769 325.649C963.171 328.046 960.935 329.723 958.059 330.682C955.183 331.481 951.828 331.241 947.993 329.963C942.721 327.886 938.007 326.368 933.853 325.41C929.859 324.451 926.104 323.972 922.59 323.972C916.039 323.972 911.406 324.85 908.689 326.608C905.973 328.365 904.615 330.602 904.615 333.318C904.615 335.395 905.334 337.153 906.772 338.591C908.21 339.869 910.447 340.748 913.483 341.227L940.085 345.78C950.31 347.378 958.139 350.893 963.571 356.325C969.163 361.598 971.959 368.788 971.959 377.894C971.959 390.836 967.006 400.902 957.1 408.091C947.194 415.121 934.013 418.636 917.557 418.636ZM1050.14 418.636C1038.15 418.636 1028.25 416.799 1020.42 413.124C1012.75 409.449 1007 403.937 1003.16 396.588C999.33 389.078 997.413 379.732 997.413 368.548V329.484H989.265C984.152 329.484 980.158 328.126 977.282 325.41C974.566 322.693 973.208 318.779 973.208 313.666C973.208 308.554 974.566 304.719 977.282 302.163C980.158 299.447 984.152 298.089 989.265 298.089H997.413V283.23C997.413 276.2 999.251 270.848 1002.93 267.173C1006.6 263.498 1011.87 261.661 1018.74 261.661C1025.61 261.661 1030.89 263.498 1034.56 267.173C1038.23 270.848 1040.07 276.2 1040.07 283.23V298.089H1059.72C1065 298.089 1068.99 299.447 1071.71 302.163C1074.58 304.719 1076.02 308.554 1076.02 313.666C1076.02 318.779 1074.58 322.693 1071.71 325.41C1068.99 328.126 1065 329.484 1059.72 329.484H1040.07V367.11C1040.07 373.021 1041.43 377.415 1044.15 380.291C1047.02 383.007 1051.5 384.365 1057.57 384.365C1059.8 384.365 1061.96 384.126 1064.04 383.646C1066.11 383.167 1068.03 382.927 1069.79 382.927C1072.35 382.768 1074.42 383.566 1076.02 385.324C1077.62 386.922 1078.42 390.676 1078.42 396.588C1078.42 401.381 1077.7 405.455 1076.26 408.81C1074.82 412.006 1072.27 414.322 1068.59 415.76C1066.35 416.559 1063.32 417.198 1059.48 417.678C1055.65 418.317 1052.53 418.636 1050.14 418.636Z" fill="#FBDE37"/>
<path d="M198.09 416.225C191.379 416.225 186.187 414.228 182.512 410.234C178.837 406.24 177 400.488 177 392.978V317.247C177 309.737 178.837 303.986 182.512 299.991C186.187 295.997 191.379 294 198.09 294C204.96 294 210.232 295.997 213.907 299.991C217.742 303.986 219.659 309.737 219.659 317.247V392.978C219.659 400.488 217.822 406.24 214.147 410.234C210.472 414.228 205.12 416.225 198.09 416.225Z" fill="#FBDE37"/>
<path d="M152.225 394.569C152.225 401.28 150.228 406.472 146.234 410.147C142.24 413.822 136.488 415.659 128.978 415.659H53.2468C45.7375 415.659 39.9857 413.822 35.9914 410.147C31.9971 406.472 30 401.28 30 394.569C30 387.699 31.9971 382.427 35.9914 378.752C39.9857 374.917 45.7375 373 53.2468 373H128.978C136.488 373 142.24 374.838 146.234 378.512C150.228 382.187 152.225 387.539 152.225 394.569Z" fill="#FBDE37"/>
<path d="M152.225 327.571C152.225 334.335 150.624 339.569 147.421 343.273C144.219 346.978 139.607 348.83 133.586 348.83H72.8646C66.8436 348.83 62.2319 346.978 59.0293 343.273C55.8267 339.569 54.2253 334.335 54.2253 327.571C54.2253 320.646 55.8267 315.331 59.0293 311.627C62.2319 307.762 66.8436 305.83 72.8646 305.83H133.586C139.607 305.83 144.219 307.682 147.421 311.386C150.624 315.09 152.225 320.485 152.225 327.571Z" fill="#FBDE37"/>
<rect width="42.66" height="42.66" rx="21.33" transform="matrix(-1 0 0 1 219.66 227)" fill="#283673"/>
</svg>